%TF.GenerationSoftware,KiCad,Pcbnew,(5.1.10)-1*%
%TF.CreationDate,2021-10-30T21:12:42+05:30*%
%TF.ProjectId,esp12swithch board,65737031-3273-4776-9974-68636820626f,rev?*%
%TF.SameCoordinates,Original*%
%TF.FileFunction,Soldermask,Top*%
%TF.FilePolarity,Negative*%
%FSLAX46Y46*%
G04 Gerber Fmt 4.6, Leading zero omitted, Abs format (unit mm)*
G04 Created by KiCad (PCBNEW (5.1.10)-1) date 2021-10-30 21:12:42*
%MOMM*%
%LPD*%
G01*
G04 APERTURE LIST*
%ADD10C,1.980000*%
%ADD11C,1.935000*%
%ADD12R,1.980000X1.980000*%
%ADD13R,2.500000X1.000000*%
%ADD14R,1.000000X1.800000*%
%ADD15O,1.600000X1.600000*%
%ADD16C,1.600000*%
%ADD17R,1.050000X1.500000*%
%ADD18O,1.050000X1.500000*%
%ADD19C,2.300000*%
%ADD20R,2.300000X2.000000*%
%ADD21O,1.980000X3.960000*%
%ADD22R,1.980000X3.960000*%
%ADD23O,1.950000X1.700000*%
%ADD24O,2.200000X2.200000*%
%ADD25R,2.200000X2.200000*%
G04 APERTURE END LIST*
D10*
%TO.C,K3*%
X225810000Y-49880000D03*
X225810000Y-61880000D03*
X213610000Y-61880000D03*
D11*
X211610000Y-55880000D03*
D12*
X213610000Y-49880000D03*
%TD*%
D10*
%TO.C,K4*%
X225810000Y-67660000D03*
X225810000Y-79660000D03*
X213610000Y-79660000D03*
D11*
X211610000Y-73660000D03*
D12*
X213610000Y-67660000D03*
%TD*%
D10*
%TO.C,K2*%
X147570000Y-61880000D03*
X147570000Y-49880000D03*
X159770000Y-49880000D03*
D11*
X161770000Y-55880000D03*
D12*
X159770000Y-61880000D03*
%TD*%
D13*
%TO.C,U2*%
X194290000Y-54920000D03*
X194290000Y-56920000D03*
X194290000Y-58920000D03*
X194290000Y-60920000D03*
X194290000Y-62920000D03*
X194290000Y-64920000D03*
X194290000Y-66920000D03*
X194290000Y-68920000D03*
D14*
X191690000Y-70420000D03*
X189690000Y-70420000D03*
X187690000Y-70420000D03*
X185690000Y-70420000D03*
X183690000Y-70420000D03*
X181690000Y-70420000D03*
D13*
X179090000Y-68920000D03*
X179090000Y-66920000D03*
X179090000Y-64920000D03*
X179090000Y-62920000D03*
X179090000Y-60920000D03*
X179090000Y-58920000D03*
X179090000Y-56920000D03*
X179090000Y-54920000D03*
%TD*%
D15*
%TO.C,R8*%
X189230000Y-73660000D03*
D16*
X189230000Y-81280000D03*
%TD*%
D15*
%TO.C,R7*%
X194310000Y-73660000D03*
D16*
X194310000Y-81280000D03*
%TD*%
D15*
%TO.C,R6*%
X184150000Y-73660000D03*
D16*
X184150000Y-81280000D03*
%TD*%
D15*
%TO.C,R5*%
X179070000Y-73660000D03*
D16*
X179070000Y-81280000D03*
%TD*%
D15*
%TO.C,R4*%
X199390000Y-72390000D03*
D16*
X199390000Y-80010000D03*
%TD*%
D15*
%TO.C,R3*%
X199390000Y-49530000D03*
D16*
X199390000Y-57150000D03*
%TD*%
D15*
%TO.C,R2*%
X173990000Y-50800000D03*
D16*
X173990000Y-58420000D03*
%TD*%
D15*
%TO.C,R1*%
X173990000Y-78740000D03*
D16*
X173990000Y-71120000D03*
%TD*%
D17*
%TO.C,Q4*%
X198120000Y-64770000D03*
D18*
X200660000Y-64770000D03*
X199390000Y-64770000D03*
%TD*%
D17*
%TO.C,Q3*%
X204470000Y-64770000D03*
D18*
X207010000Y-64770000D03*
X205740000Y-64770000D03*
%TD*%
D17*
%TO.C,Q2*%
X166370000Y-64770000D03*
D18*
X168910000Y-64770000D03*
X167640000Y-64770000D03*
%TD*%
D17*
%TO.C,Q1*%
X172720000Y-64770000D03*
D18*
X175260000Y-64770000D03*
X173990000Y-64770000D03*
%TD*%
D19*
%TO.C,PS1*%
X196850000Y-101600000D03*
X166370000Y-91440000D03*
D20*
X166370000Y-87630000D03*
D19*
X196850000Y-91440000D03*
%TD*%
D10*
%TO.C,K1*%
X147570000Y-80930000D03*
X147570000Y-68930000D03*
X159770000Y-68930000D03*
D11*
X161770000Y-74930000D03*
D12*
X159770000Y-80930000D03*
%TD*%
D21*
%TO.C,J4*%
X220820000Y-97790000D03*
X225820000Y-97790000D03*
X215820000Y-97790000D03*
D22*
X210820000Y-97790000D03*
%TD*%
D23*
%TO.C,J3*%
X203200000Y-87830000D03*
X203200000Y-90330000D03*
X203200000Y-92830000D03*
X203200000Y-95330000D03*
X203200000Y-97830000D03*
G36*
G01*
X203925000Y-101180000D02*
X202475000Y-101180000D01*
G75*
G02*
X202225000Y-100930000I0J250000D01*
G01*
X202225000Y-99730000D01*
G75*
G02*
X202475000Y-99480000I250000J0D01*
G01*
X203925000Y-99480000D01*
G75*
G02*
X204175000Y-99730000I0J-250000D01*
G01*
X204175000Y-100930000D01*
G75*
G02*
X203925000Y-101180000I-250000J0D01*
G01*
G37*
%TD*%
D21*
%TO.C,J1*%
X157480000Y-96520000D03*
X152480000Y-96520000D03*
D22*
X147480000Y-96520000D03*
%TD*%
D24*
%TO.C,D4*%
X204470000Y-71120000D03*
D25*
X204470000Y-81280000D03*
%TD*%
D24*
%TO.C,D3*%
X204470000Y-49530000D03*
D25*
X204470000Y-59690000D03*
%TD*%
D24*
%TO.C,D2*%
X168910000Y-49530000D03*
D25*
X168910000Y-59690000D03*
%TD*%
D24*
%TO.C,D1*%
X168910000Y-80010000D03*
D25*
X168910000Y-69850000D03*
%TD*%
M02*
