%TF.GenerationSoftware,KiCad,Pcbnew,(5.1.10)-1*%
%TF.CreationDate,2021-10-30T21:12:42+05:30*%
%TF.ProjectId,esp12swithch board,65737031-3273-4776-9974-68636820626f,rev?*%
%TF.SameCoordinates,Original*%
%TF.FileFunction,Copper,L1,Top*%
%TF.FilePolarity,Positive*%
%FSLAX46Y46*%
G04 Gerber Fmt 4.6, Leading zero omitted, Abs format (unit mm)*
G04 Created by KiCad (PCBNEW (5.1.10)-1) date 2021-10-30 21:12:42*
%MOMM*%
%LPD*%
G01*
G04 APERTURE LIST*
%TA.AperFunction,ComponentPad*%
%ADD10C,1.980000*%
%TD*%
%TA.AperFunction,ComponentPad*%
%ADD11C,1.935000*%
%TD*%
%TA.AperFunction,ComponentPad*%
%ADD12R,1.980000X1.980000*%
%TD*%
%TA.AperFunction,SMDPad,CuDef*%
%ADD13R,2.500000X1.000000*%
%TD*%
%TA.AperFunction,SMDPad,CuDef*%
%ADD14R,1.000000X1.800000*%
%TD*%
%TA.AperFunction,ComponentPad*%
%ADD15O,1.600000X1.600000*%
%TD*%
%TA.AperFunction,ComponentPad*%
%ADD16C,1.600000*%
%TD*%
%TA.AperFunction,ComponentPad*%
%ADD17R,1.050000X1.500000*%
%TD*%
%TA.AperFunction,ComponentPad*%
%ADD18O,1.050000X1.500000*%
%TD*%
%TA.AperFunction,ComponentPad*%
%ADD19C,2.300000*%
%TD*%
%TA.AperFunction,ComponentPad*%
%ADD20R,2.300000X2.000000*%
%TD*%
%TA.AperFunction,ComponentPad*%
%ADD21O,1.980000X3.960000*%
%TD*%
%TA.AperFunction,ComponentPad*%
%ADD22R,1.980000X3.960000*%
%TD*%
%TA.AperFunction,ComponentPad*%
%ADD23O,1.950000X1.700000*%
%TD*%
%TA.AperFunction,ComponentPad*%
%ADD24O,2.200000X2.200000*%
%TD*%
%TA.AperFunction,ComponentPad*%
%ADD25R,2.200000X2.200000*%
%TD*%
%TA.AperFunction,ViaPad*%
%ADD26C,0.800000*%
%TD*%
%TA.AperFunction,Conductor*%
%ADD27C,0.250000*%
%TD*%
%TA.AperFunction,Conductor*%
%ADD28C,1.000000*%
%TD*%
G04 APERTURE END LIST*
D10*
%TO.P,K3,NC*%
%TO.N,Net-(K3-PadNC)*%
X225810000Y-49880000D03*
%TO.P,K3,NO*%
%TO.N,Net-(J4-Pad2)*%
X225810000Y-61880000D03*
%TO.P,K3,A2*%
%TO.N,VCC*%
X213610000Y-61880000D03*
D11*
%TO.P,K3,COM*%
%TO.N,Net-(J1-Pad3)*%
X211610000Y-55880000D03*
D12*
%TO.P,K3,A1*%
%TO.N,Net-(D3-Pad2)*%
X213610000Y-49880000D03*
%TD*%
D10*
%TO.P,K4,NC*%
%TO.N,Net-(K4-PadNC)*%
X225810000Y-67660000D03*
%TO.P,K4,NO*%
%TO.N,Net-(J4-Pad3)*%
X225810000Y-79660000D03*
%TO.P,K4,A2*%
%TO.N,VCC*%
X213610000Y-79660000D03*
D11*
%TO.P,K4,COM*%
%TO.N,Net-(J1-Pad3)*%
X211610000Y-73660000D03*
D12*
%TO.P,K4,A1*%
%TO.N,Net-(D4-Pad2)*%
X213610000Y-67660000D03*
%TD*%
D10*
%TO.P,K2,NC*%
%TO.N,Net-(K2-PadNC)*%
X147570000Y-61880000D03*
%TO.P,K2,NO*%
%TO.N,Net-(J1-Pad2)*%
X147570000Y-49880000D03*
%TO.P,K2,A2*%
%TO.N,GND*%
X159770000Y-49880000D03*
D11*
%TO.P,K2,COM*%
%TO.N,Net-(J1-Pad3)*%
X161770000Y-55880000D03*
D12*
%TO.P,K2,A1*%
%TO.N,Net-(D2-Pad2)*%
X159770000Y-61880000D03*
%TD*%
D13*
%TO.P,U2,22*%
%TO.N,Net-(U2-Pad22)*%
X194290000Y-54920000D03*
%TO.P,U2,21*%
%TO.N,Net-(U2-Pad21)*%
X194290000Y-56920000D03*
%TO.P,U2,20*%
%TO.N,Net-(J3-Pad4)*%
X194290000Y-58920000D03*
%TO.P,U2,19*%
%TO.N,Net-(R1-Pad2)*%
X194290000Y-60920000D03*
%TO.P,U2,18*%
%TO.N,Net-(U2-Pad18)*%
X194290000Y-62920000D03*
%TO.P,U2,17*%
%TO.N,Net-(U2-Pad17)*%
X194290000Y-64920000D03*
%TO.P,U2,16*%
%TO.N,Net-(R2-Pad2)*%
X194290000Y-66920000D03*
%TO.P,U2,15*%
%TO.N,GND*%
X194290000Y-68920000D03*
D14*
%TO.P,U2,14*%
%TO.N,Net-(U2-Pad14)*%
X191690000Y-70420000D03*
%TO.P,U2,13*%
%TO.N,Net-(U2-Pad13)*%
X189690000Y-70420000D03*
%TO.P,U2,12*%
%TO.N,Net-(J3-Pad2)*%
X187690000Y-70420000D03*
%TO.P,U2,11*%
%TO.N,Net-(U2-Pad11)*%
X185690000Y-70420000D03*
%TO.P,U2,10*%
%TO.N,Net-(U2-Pad10)*%
X183690000Y-70420000D03*
%TO.P,U2,9*%
%TO.N,Net-(U2-Pad9)*%
X181690000Y-70420000D03*
D13*
%TO.P,U2,8*%
%TO.N,Net-(R7-Pad1)*%
X179090000Y-68920000D03*
%TO.P,U2,7*%
%TO.N,Net-(J3-Pad5)*%
X179090000Y-66920000D03*
%TO.P,U2,6*%
%TO.N,Net-(R3-Pad2)*%
X179090000Y-64920000D03*
%TO.P,U2,5*%
%TO.N,Net-(R4-Pad2)*%
X179090000Y-62920000D03*
%TO.P,U2,4*%
%TO.N,Net-(U2-Pad4)*%
X179090000Y-60920000D03*
%TO.P,U2,3*%
%TO.N,Net-(R7-Pad2)*%
X179090000Y-58920000D03*
%TO.P,U2,2*%
%TO.N,Net-(R5-Pad1)*%
X179090000Y-56920000D03*
%TO.P,U2,1*%
%TO.N,Net-(U2-Pad1)*%
X179090000Y-54920000D03*
%TD*%
D15*
%TO.P,R8,2*%
%TO.N,GND*%
X189230000Y-73660000D03*
D16*
%TO.P,R8,1*%
%TO.N,Net-(R2-Pad2)*%
X189230000Y-81280000D03*
%TD*%
D15*
%TO.P,R7,2*%
%TO.N,Net-(R7-Pad2)*%
X194310000Y-73660000D03*
D16*
%TO.P,R7,1*%
%TO.N,Net-(R7-Pad1)*%
X194310000Y-81280000D03*
%TD*%
D15*
%TO.P,R6,2*%
%TO.N,Net-(R5-Pad1)*%
X184150000Y-73660000D03*
D16*
%TO.P,R6,1*%
%TO.N,GND*%
X184150000Y-81280000D03*
%TD*%
D15*
%TO.P,R5,2*%
%TO.N,Net-(J3-Pad3)*%
X179070000Y-73660000D03*
D16*
%TO.P,R5,1*%
%TO.N,Net-(R5-Pad1)*%
X179070000Y-81280000D03*
%TD*%
D15*
%TO.P,R4,2*%
%TO.N,Net-(R4-Pad2)*%
X199390000Y-72390000D03*
D16*
%TO.P,R4,1*%
%TO.N,Net-(Q4-Pad2)*%
X199390000Y-80010000D03*
%TD*%
D15*
%TO.P,R3,2*%
%TO.N,Net-(R3-Pad2)*%
X199390000Y-49530000D03*
D16*
%TO.P,R3,1*%
%TO.N,Net-(Q3-Pad2)*%
X199390000Y-57150000D03*
%TD*%
D15*
%TO.P,R2,2*%
%TO.N,Net-(R2-Pad2)*%
X173990000Y-50800000D03*
D16*
%TO.P,R2,1*%
%TO.N,Net-(Q2-Pad2)*%
X173990000Y-58420000D03*
%TD*%
D15*
%TO.P,R1,2*%
%TO.N,Net-(R1-Pad2)*%
X173990000Y-78740000D03*
D16*
%TO.P,R1,1*%
%TO.N,Net-(Q1-Pad2)*%
X173990000Y-71120000D03*
%TD*%
D17*
%TO.P,Q4,1*%
%TO.N,Net-(D4-Pad2)*%
X198120000Y-64770000D03*
D18*
%TO.P,Q4,3*%
%TO.N,GND*%
X200660000Y-64770000D03*
%TO.P,Q4,2*%
%TO.N,Net-(Q4-Pad2)*%
X199390000Y-64770000D03*
%TD*%
D17*
%TO.P,Q3,1*%
%TO.N,Net-(D3-Pad2)*%
X204470000Y-64770000D03*
D18*
%TO.P,Q3,3*%
%TO.N,GND*%
X207010000Y-64770000D03*
%TO.P,Q3,2*%
%TO.N,Net-(Q3-Pad2)*%
X205740000Y-64770000D03*
%TD*%
D17*
%TO.P,Q2,1*%
%TO.N,Net-(D2-Pad2)*%
X166370000Y-64770000D03*
D18*
%TO.P,Q2,3*%
%TO.N,VCC*%
X168910000Y-64770000D03*
%TO.P,Q2,2*%
%TO.N,Net-(Q2-Pad2)*%
X167640000Y-64770000D03*
%TD*%
D17*
%TO.P,Q1,1*%
%TO.N,Net-(D1-Pad2)*%
X172720000Y-64770000D03*
D18*
%TO.P,Q1,3*%
%TO.N,VCC*%
X175260000Y-64770000D03*
%TO.P,Q1,2*%
%TO.N,Net-(Q1-Pad2)*%
X173990000Y-64770000D03*
%TD*%
D19*
%TO.P,PS1,4*%
%TO.N,VCC*%
X196850000Y-101600000D03*
%TO.P,PS1,2*%
%TO.N,Net-(J1-Pad3)*%
X166370000Y-91440000D03*
D20*
%TO.P,PS1,1*%
%TO.N,Net-(J4-Pad4)*%
X166370000Y-87630000D03*
D19*
%TO.P,PS1,3*%
%TO.N,GND*%
X196850000Y-91440000D03*
%TD*%
D10*
%TO.P,K1,NC*%
%TO.N,Net-(K1-PadNC)*%
X147570000Y-80930000D03*
%TO.P,K1,NO*%
%TO.N,Net-(J1-Pad1)*%
X147570000Y-68930000D03*
%TO.P,K1,A2*%
%TO.N,GND*%
X159770000Y-68930000D03*
D11*
%TO.P,K1,COM*%
%TO.N,Net-(J1-Pad3)*%
X161770000Y-74930000D03*
D12*
%TO.P,K1,A1*%
%TO.N,Net-(D1-Pad2)*%
X159770000Y-80930000D03*
%TD*%
D21*
%TO.P,J4,3*%
%TO.N,Net-(J4-Pad3)*%
X220820000Y-97790000D03*
%TO.P,J4,4*%
%TO.N,Net-(J4-Pad4)*%
X225820000Y-97790000D03*
%TO.P,J4,2*%
%TO.N,Net-(J4-Pad2)*%
X215820000Y-97790000D03*
D22*
%TO.P,J4,1*%
%TO.N,Net-(J1-Pad3)*%
X210820000Y-97790000D03*
%TD*%
D23*
%TO.P,J3,6*%
%TO.N,GND*%
X203200000Y-87830000D03*
%TO.P,J3,5*%
%TO.N,Net-(J3-Pad5)*%
X203200000Y-90330000D03*
%TO.P,J3,4*%
%TO.N,Net-(J3-Pad4)*%
X203200000Y-92830000D03*
%TO.P,J3,3*%
%TO.N,Net-(J3-Pad3)*%
X203200000Y-95330000D03*
%TO.P,J3,2*%
%TO.N,Net-(J3-Pad2)*%
X203200000Y-97830000D03*
%TO.P,J3,1*%
%TO.N,VCC*%
%TA.AperFunction,ComponentPad*%
G36*
G01*
X203925000Y-101180000D02*
X202475000Y-101180000D01*
G75*
G02*
X202225000Y-100930000I0J250000D01*
G01*
X202225000Y-99730000D01*
G75*
G02*
X202475000Y-99480000I250000J0D01*
G01*
X203925000Y-99480000D01*
G75*
G02*
X204175000Y-99730000I0J-250000D01*
G01*
X204175000Y-100930000D01*
G75*
G02*
X203925000Y-101180000I-250000J0D01*
G01*
G37*
%TD.AperFunction*%
%TD*%
D21*
%TO.P,J1,3*%
%TO.N,Net-(J1-Pad3)*%
X157480000Y-96520000D03*
%TO.P,J1,2*%
%TO.N,Net-(J1-Pad2)*%
X152480000Y-96520000D03*
D22*
%TO.P,J1,1*%
%TO.N,Net-(J1-Pad1)*%
X147480000Y-96520000D03*
%TD*%
D24*
%TO.P,D4,2*%
%TO.N,Net-(D4-Pad2)*%
X204470000Y-71120000D03*
D25*
%TO.P,D4,1*%
%TO.N,VCC*%
X204470000Y-81280000D03*
%TD*%
D24*
%TO.P,D3,2*%
%TO.N,Net-(D3-Pad2)*%
X204470000Y-49530000D03*
D25*
%TO.P,D3,1*%
%TO.N,VCC*%
X204470000Y-59690000D03*
%TD*%
D24*
%TO.P,D2,2*%
%TO.N,Net-(D2-Pad2)*%
X168910000Y-49530000D03*
D25*
%TO.P,D2,1*%
%TO.N,GND*%
X168910000Y-59690000D03*
%TD*%
D24*
%TO.P,D1,2*%
%TO.N,Net-(D1-Pad2)*%
X168910000Y-80010000D03*
D25*
%TO.P,D1,1*%
%TO.N,GND*%
X168910000Y-69850000D03*
%TD*%
D26*
%TO.N,GND*%
X182880000Y-63500000D03*
%TO.N,Net-(J3-Pad4)*%
X196297000Y-59241000D03*
%TO.N,Net-(R2-Pad2)*%
X191927600Y-66334400D03*
%TO.N,Net-(R7-Pad2)*%
X180940400Y-58920000D03*
%TD*%
D27*
%TO.N,Net-(D1-Pad2)*%
X159770000Y-80930000D02*
X161085300Y-80930000D01*
X168910000Y-80010000D02*
X162005300Y-80010000D01*
X162005300Y-80010000D02*
X161085300Y-80930000D01*
%TO.N,GND*%
X200660000Y-64770000D02*
X200660000Y-65845300D01*
X200660000Y-65845300D02*
X197585300Y-68920000D01*
X197585300Y-68920000D02*
X194290000Y-68920000D01*
X196850000Y-91440000D02*
X200460000Y-87830000D01*
X200460000Y-87830000D02*
X203200000Y-87830000D01*
X159770000Y-49880000D02*
X162125900Y-49880000D01*
X162125900Y-49880000D02*
X168910000Y-56664100D01*
X168910000Y-56664100D02*
X168910000Y-59690000D01*
%TO.N,VCC*%
X204470000Y-59690000D02*
X205895300Y-59690000D01*
X205895300Y-59690000D02*
X208085300Y-61880000D01*
X208085300Y-61880000D02*
X213610000Y-61880000D01*
X175260000Y-64770000D02*
X175260000Y-65845300D01*
X168910000Y-64770000D02*
X169760300Y-64770000D01*
X169760300Y-64770000D02*
X170835600Y-65845300D01*
X170835600Y-65845300D02*
X175260000Y-65845300D01*
X213610000Y-79660000D02*
X211990000Y-81280000D01*
X211990000Y-81280000D02*
X204470000Y-81280000D01*
X203200000Y-100330000D02*
X198120000Y-100330000D01*
X198120000Y-100330000D02*
X196850000Y-101600000D01*
%TO.N,Net-(D4-Pad2)*%
X204470000Y-67660000D02*
X204470000Y-67148100D01*
X204470000Y-67148100D02*
X201016600Y-63694700D01*
X201016600Y-63694700D02*
X198120000Y-63694700D01*
X204470000Y-71120000D02*
X204470000Y-67660000D01*
X204470000Y-67660000D02*
X213610000Y-67660000D01*
X198120000Y-64770000D02*
X198120000Y-63694700D01*
D28*
%TO.N,Net-(J1-Pad3)*%
X219710000Y-76200000D02*
X219710000Y-81280000D01*
X211610000Y-73660000D02*
X217170000Y-73660000D01*
X217170000Y-73660000D02*
X219710000Y-76200000D01*
X219710000Y-76200000D02*
X219710000Y-81280000D01*
X211610000Y-55880000D02*
X218440000Y-55880000D01*
X218440000Y-55880000D02*
X219710000Y-57150000D01*
X219710000Y-57150000D02*
X219710000Y-76200000D01*
X156210000Y-76200000D02*
X156210000Y-81280000D01*
X161770000Y-74930000D02*
X157480000Y-74930000D01*
X157480000Y-74930000D02*
X156210000Y-76200000D01*
X156210000Y-76200000D02*
X156210000Y-81280000D01*
X210820000Y-97790000D02*
X210820000Y-104140000D01*
X210820000Y-104140000D02*
X205740000Y-109220000D01*
X205740000Y-109220000D02*
X170180000Y-109220000D01*
X170180000Y-109220000D02*
X157480000Y-96520000D01*
X156210000Y-81280000D02*
X156210000Y-95250000D01*
X156210000Y-95250000D02*
X157480000Y-96520000D01*
X161770000Y-55880000D02*
X157480000Y-55880000D01*
X157480000Y-55880000D02*
X156210000Y-57150000D01*
X156210000Y-57150000D02*
X156210000Y-76200000D01*
X157480000Y-96520000D02*
X161290000Y-96520000D01*
X161290000Y-96520000D02*
X166370000Y-91440000D01*
X219710000Y-81280000D02*
X219710000Y-88900000D01*
X219710000Y-88900000D02*
X210820000Y-97790000D01*
%TO.N,Net-(J1-Pad2)*%
X147570000Y-49880000D02*
X150210000Y-49880000D01*
X150210000Y-49880000D02*
X152480000Y-52150000D01*
X152480000Y-52150000D02*
X152480000Y-96520000D01*
%TO.N,Net-(J1-Pad1)*%
X147570000Y-68930000D02*
X144110000Y-72390000D01*
X144110000Y-72390000D02*
X144110000Y-93150000D01*
X144110000Y-93150000D02*
X147480000Y-96520000D01*
D27*
%TO.N,Net-(J3-Pad5)*%
X203200000Y-90330000D02*
X203200000Y-89154700D01*
X203200000Y-89154700D02*
X203714200Y-89154700D01*
X203714200Y-89154700D02*
X204532900Y-88336000D01*
X204532900Y-88336000D02*
X204532900Y-86865900D01*
X204532900Y-86865900D02*
X198264600Y-80597600D01*
X198264600Y-80597600D02*
X198264600Y-79894900D01*
X198264600Y-79894900D02*
X190816100Y-72446400D01*
X190816100Y-72446400D02*
X190816100Y-69677700D01*
X190816100Y-69677700D02*
X188058400Y-66920000D01*
X188058400Y-66920000D02*
X179090000Y-66920000D01*
%TO.N,Net-(J3-Pad4)*%
X194290000Y-58920000D02*
X195865300Y-58920000D01*
X196297000Y-59241000D02*
X196186300Y-59241000D01*
X196186300Y-59241000D02*
X195865300Y-58920000D01*
%TO.N,Net-(J3-Pad2)*%
X203200000Y-97830000D02*
X201112600Y-97830000D01*
X201112600Y-97830000D02*
X187690000Y-84407400D01*
X187690000Y-84407400D02*
X187690000Y-70420000D01*
D28*
%TO.N,Net-(J4-Pad3)*%
X225810000Y-79660000D02*
X225810000Y-92800000D01*
X225810000Y-92800000D02*
X220820000Y-97790000D01*
%TO.N,Net-(J4-Pad2)*%
X225810000Y-61880000D02*
X223870000Y-61880000D01*
X223870000Y-61880000D02*
X222250000Y-63500000D01*
X222250000Y-63500000D02*
X222250000Y-91360000D01*
X222250000Y-91360000D02*
X215820000Y-97790000D01*
D27*
%TO.N,Net-(Q2-Pad2)*%
X167640000Y-64770000D02*
X167640000Y-63694700D01*
X167640000Y-63694700D02*
X168715300Y-63694700D01*
X168715300Y-63694700D02*
X173990000Y-58420000D01*
%TO.N,Net-(Q3-Pad2)*%
X205740000Y-64770000D02*
X205740000Y-63694700D01*
X205740000Y-63694700D02*
X199390000Y-57344700D01*
X199390000Y-57344700D02*
X199390000Y-57150000D01*
%TO.N,Net-(R1-Pad2)*%
X173990000Y-77614700D02*
X175115300Y-76489400D01*
X175115300Y-76489400D02*
X175115300Y-68634100D01*
X175115300Y-68634100D02*
X177654800Y-66094600D01*
X177654800Y-66094600D02*
X185155700Y-66094600D01*
X185155700Y-66094600D02*
X190330300Y-60920000D01*
X190330300Y-60920000D02*
X194290000Y-60920000D01*
X173990000Y-78740000D02*
X173990000Y-77614700D01*
%TO.N,Net-(R2-Pad2)*%
X191927600Y-66334400D02*
X192129100Y-66334400D01*
X192129100Y-66334400D02*
X192714700Y-66920000D01*
X194290000Y-66920000D02*
X192714700Y-66920000D01*
%TO.N,Net-(R3-Pad2)*%
X199390000Y-49530000D02*
X193284000Y-49530000D01*
X193284000Y-49530000D02*
X181068700Y-61745300D01*
X181068700Y-61745300D02*
X178054600Y-61745300D01*
X178054600Y-61745300D02*
X177514700Y-62285200D01*
X177514700Y-62285200D02*
X177514700Y-64920000D01*
X179090000Y-64920000D02*
X177514700Y-64920000D01*
%TO.N,Net-(R4-Pad2)*%
X199390000Y-72390000D02*
X195548300Y-72390000D01*
X195548300Y-72390000D02*
X192714600Y-69556300D01*
X192714600Y-69556300D02*
X192714600Y-68277300D01*
X192714600Y-68277300D02*
X192897300Y-68094600D01*
X192897300Y-68094600D02*
X195401700Y-68094600D01*
X195401700Y-68094600D02*
X195872300Y-67624000D01*
X195872300Y-67624000D02*
X195872300Y-60224300D01*
X195872300Y-60224300D02*
X195742600Y-60094600D01*
X195742600Y-60094600D02*
X184255700Y-60094600D01*
X184255700Y-60094600D02*
X181430300Y-62920000D01*
X181430300Y-62920000D02*
X179090000Y-62920000D01*
%TO.N,Net-(R5-Pad1)*%
X179090000Y-56920000D02*
X177514700Y-56920000D01*
X179070000Y-80969400D02*
X174609500Y-80969400D01*
X174609500Y-80969400D02*
X172848100Y-79208000D01*
X172848100Y-79208000D02*
X172848100Y-69686300D01*
X172848100Y-69686300D02*
X176315000Y-66219400D01*
X176315000Y-66219400D02*
X176315000Y-58119700D01*
X176315000Y-58119700D02*
X177514700Y-56920000D01*
X179070000Y-80969400D02*
X179070000Y-81280000D01*
X184150000Y-74785300D02*
X179070100Y-79865200D01*
X179070100Y-79865200D02*
X179070100Y-80969400D01*
X179070100Y-80969400D02*
X179070000Y-80969400D01*
X184150000Y-73660000D02*
X184150000Y-74785300D01*
%TO.N,Net-(R7-Pad2)*%
X180665300Y-58920000D02*
X180940400Y-58920000D01*
X179090000Y-58920000D02*
X180665300Y-58920000D01*
%TO.N,Net-(R7-Pad1)*%
X194310000Y-81280000D02*
X194310000Y-77108100D01*
X194310000Y-77108100D02*
X188546000Y-71344100D01*
X188546000Y-71344100D02*
X188546000Y-69415900D01*
X188546000Y-69415900D02*
X188050100Y-68920000D01*
X188050100Y-68920000D02*
X179090000Y-68920000D01*
%TD*%
M02*
